<svg xmlns="http://www.w3.org/2000/svg" viewBox="0 0 32 32" shape-rendering="crispEdges" role="img" aria-label="Yog-Sothoth eye"><rect x="12" y="1" width="8" height="1" fill="#a3aec2"/><rect x="9" y="2" width="3" height="1" fill="#a3aec2"/><rect x="12" y="2" width="1" height="1" fill="#3b4252"/><rect x="13" y="2" width="1" height="1" fill="#2e3440"/><rect x="14" y="2" width="3" height="1" fill="#3b4252"/><rect x="17" y="2" width="1" height="1" fill="#2e3440"/><rect x="18" y="2" width="2" height="1" fill="#3b4252"/><rect x="20" y="2" width="3" height="1" fill="#a3aec2"/><rect x="8" y="3" width="2" height="1" fill="#a3aec2"/><rect x="10" y="3" width="1" height="1" fill="#2e3440"/><rect x="11" y="3" width="1" height="1" fill="#3b4252"/><rect x="12" y="3" width="1" height="1" fill="#2e3440"/><rect x="13" y="3" width="6" height="1" fill="#ffffff"/><rect x="19" y="3" width="1" height="1" fill="#3b4252"/><rect x="20" y="3" width="1" height="1" fill="#2e3440"/><rect x="21" y="3" width="1" height="1" fill="#3b4252"/><rect x="22" y="3" width="2" height="1" fill="#a3aec2"/><rect x="6" y="4" width="2" height="1" fill="#a3aec2"/><rect x="8" y="4" width="3" height="1" fill="#3b4252"/><rect x="11" y="4" width="10" height="1" fill="#ffffff"/><rect x="21" y="4" width="3" height="1" fill="#2e3440"/><rect x="24" y="4" width="2" height="1" fill="#a3aec2"/><rect x="5" y="5" width="2" height="1" fill="#a3aec2"/><rect x="7" y="5" width="1" height="1" fill="#3b4252"/><rect x="8" y="5" width="1" height="1" fill="#2e3440"/><rect x="9" y="5" width="1" height="1" fill="#3b4252"/><rect x="10" y="5" width="12" height="1" fill="#ffffff"/><rect x="22" y="5" width="3" height="1" fill="#2e3440"/><rect x="25" y="5" width="2" height="1" fill="#a3aec2"/><rect x="4" y="6" width="2" height="1" fill="#a3aec2"/><rect x="6" y="6" width="1" height="1" fill="#3b4252"/><rect x="7" y="6" width="1" height="1" fill="#2e3440"/><rect x="8" y="6" width="1" height="1" fill="#3b4252"/><rect x="9" y="6" width="14" height="1" fill="#ffffff"/><rect x="23" y="6" width="3" height="1" fill="#2e3440"/><rect x="26" y="6" width="2" height="1" fill="#a3aec2"/><rect x="4" y="7" width="1" height="1" fill="#a3aec2"/><rect x="5" y="7" width="1" height="1" fill="#3b4252"/><rect x="6" y="7" width="3" height="1" fill="#2e3440"/><rect x="9" y="7" width="14" height="1" fill="#ffffff"/><rect x="23" y="7" width="4" height="1" fill="#2e3440"/><rect x="27" y="7" width="1" height="1" fill="#a3aec2"/><rect x="3" y="8" width="1" height="1" fill="#a3aec2"/><rect x="4" y="8" width="1" height="1" fill="#3b4252"/><rect x="5" y="8" width="1" height="1" fill="#2e3440"/><rect x="6" y="8" width="1" height="1" fill="#3b4252"/><rect x="7" y="8" width="3" height="1" fill="#2e3440"/><rect x="10" y="8" width="12" height="1" fill="#ffffff"/><rect x="22" y="8" width="6" height="1" fill="#2e3440"/><rect x="28" y="8" width="1" height="1" fill="#a3aec2"/><rect x="2" y="9" width="2" height="1" fill="#a3aec2"/><rect x="4" y="9" width="1" height="1" fill="#2e3440"/><rect x="5" y="9" width="1" height="1" fill="#3b4252"/><rect x="6" y="9" width="5" height="1" fill="#2e3440"/><rect x="11" y="9" width="10" height="1" fill="#ffffff"/><rect x="21" y="9" width="7" height="1" fill="#2e3440"/><rect x="28" y="9" width="2" height="1" fill="#a3aec2"/><rect x="2" y="10" width="1" height="1" fill="#a3aec2"/><rect x="3" y="10" width="2" height="1" fill="#3b4252"/><rect x="5" y="10" width="8" height="1" fill="#2e3440"/><rect x="13" y="10" width="6" height="1" fill="#ffffff"/><rect x="19" y="10" width="10" height="1" fill="#2e3440"/><rect x="29" y="10" width="1" height="1" fill="#687286"/><rect x="2" y="11" width="1" height="1" fill="#a3aec2"/><rect x="3" y="11" width="1" height="1" fill="#3b4252"/><rect x="4" y="11" width="8" height="1" fill="#2e3440"/><rect x="12" y="11" width="2" height="1" fill="#880000"/><rect x="14" y="11" width="4" height="1" fill="#e84211"/><rect x="18" y="11" width="2" height="1" fill="#880000"/><rect x="20" y="11" width="9" height="1" fill="#2e3440"/><rect x="29" y="11" width="1" height="1" fill="#687286"/><rect x="1" y="12" width="1" height="1" fill="#a3aec2"/><rect x="2" y="12" width="1" height="1" fill="#3b4252"/><rect x="3" y="12" width="1" height="1" fill="#2e3440"/><rect x="4" y="12" width="1" height="1" fill="#3b4252"/><rect x="5" y="12" width="6" height="1" fill="#2e3440"/><rect x="11" y="12" width="1" height="1" fill="#880000"/><rect x="12" y="12" width="5" height="1" fill="#e84211"/><rect x="17" y="12" width="3" height="1" fill="#cc2200"/><rect x="20" y="12" width="1" height="1" fill="#880000"/><rect x="21" y="12" width="7" height="1" fill="#2e3440"/><rect x="28" y="12" width="2" height="1" fill="#232832"/><rect x="30" y="12" width="1" height="1" fill="#687286"/><rect x="1" y="13" width="1" height="1" fill="#a3aec2"/><rect x="2" y="13" width="1" height="1" fill="#2e3440"/><rect x="3" y="13" width="1" height="1" fill="#3b4252"/><rect x="4" y="13" width="7" height="1" fill="#2e3440"/><rect x="11" y="13" width="1" height="1" fill="#880000"/><rect x="12" y="13" width="3" height="1" fill="#e84211"/><rect x="15" y="13" width="5" height="1" fill="#cc2200"/><rect x="20" y="13" width="1" height="1" fill="#880000"/><rect x="21" y="13" width="8" height="1" fill="#2e3440"/><rect x="29" y="13" width="1" height="1" fill="#232832"/><rect x="30" y="13" width="1" height="1" fill="#687286"/><rect x="1" y="14" width="1" height="1" fill="#a3aec2"/><rect x="2" y="14" width="1" height="1" fill="#3b4252"/><rect x="3" y="14" width="7" height="1" fill="#2e3440"/><rect x="10" y="14" width="1" height="1" fill="#880000"/><rect x="11" y="14" width="3" height="1" fill="#e84211"/><rect x="14" y="14" width="4" height="1" fill="#ff6600"/><rect x="18" y="14" width="3" height="1" fill="#cc2200"/><rect x="21" y="14" width="1" height="1" fill="#880000"/><rect x="22" y="14" width="6" height="1" fill="#2e3440"/><rect x="28" y="14" width="1" height="1" fill="#232832"/><rect x="29" y="14" width="1" height="1" fill="#2e3440"/><rect x="30" y="14" width="1" height="1" fill="#687286"/><rect x="1" y="15" width="1" height="1" fill="#a3aec2"/><rect x="2" y="15" width="1" height="1" fill="#2e3440"/><rect x="3" y="15" width="1" height="1" fill="#3b4252"/><rect x="4" y="15" width="6" height="1" fill="#2e3440"/><rect x="10" y="15" width="1" height="1" fill="#880000"/><rect x="11" y="15" width="2" height="1" fill="#e84211"/><rect x="13" y="15" width="1" height="1" fill="#cc2200"/><rect x="14" y="15" width="1" height="1" fill="#ff6600"/><rect x="15" y="15" width="2" height="1" fill="#ffe282"/><rect x="17" y="15" width="1" height="1" fill="#ff6600"/><rect x="18" y="15" width="3" height="1" fill="#cc2200"/><rect x="21" y="15" width="1" height="1" fill="#880000"/><rect x="22" y="15" width="7" height="1" fill="#2e3440"/><rect x="29" y="15" width="1" height="1" fill="#232832"/><rect x="30" y="15" width="1" height="1" fill="#687286"/><rect x="1" y="16" width="1" height="1" fill="#a3aec2"/><rect x="2" y="16" width="1" height="1" fill="#3b4252"/><rect x="3" y="16" width="1" height="1" fill="#2e3440"/><rect x="4" y="16" width="1" height="1" fill="#3b4252"/><rect x="5" y="16" width="5" height="1" fill="#2e3440"/><rect x="10" y="16" width="1" height="1" fill="#880000"/><rect x="11" y="16" width="1" height="1" fill="#e84211"/><rect x="12" y="16" width="2" height="1" fill="#cc2200"/><rect x="14" y="16" width="1" height="1" fill="#ff6600"/><rect x="15" y="16" width="2" height="1" fill="#ffe282"/><rect x="17" y="16" width="1" height="1" fill="#ff6600"/><rect x="18" y="16" width="3" height="1" fill="#cc2200"/><rect x="21" y="16" width="1" height="1" fill="#880000"/><rect x="22" y="16" width="6" height="1" fill="#2e3440"/><rect x="28" y="16" width="2" height="1" fill="#232832"/><rect x="30" y="16" width="1" height="1" fill="#687286"/><rect x="1" y="17" width="1" height="1" fill="#a3aec2"/><rect x="2" y="17" width="8" height="1" fill="#2e3440"/><rect x="10" y="17" width="1" height="1" fill="#880000"/><rect x="11" y="17" width="3" height="1" fill="#cc2200"/><rect x="14" y="17" width="4" height="1" fill="#ff6600"/><rect x="18" y="17" width="3" height="1" fill="#cc2200"/><rect x="21" y="17" width="1" height="1" fill="#880000"/><rect x="22" y="17" width="7" height="1" fill="#2e3440"/><rect x="29" y="17" width="1" height="1" fill="#232832"/><rect x="30" y="17" width="1" height="1" fill="#687286"/><rect x="1" y="18" width="1" height="1" fill="#a3aec2"/><rect x="2" y="18" width="1" height="1" fill="#3b4252"/><rect x="3" y="18" width="8" height="1" fill="#2e3440"/><rect x="11" y="18" width="1" height="1" fill="#880000"/><rect x="12" y="18" width="8" height="1" fill="#cc2200"/><rect x="20" y="18" width="1" height="1" fill="#880000"/><rect x="21" y="18" width="7" height="1" fill="#2e3440"/><rect x="28" y="18" width="1" height="1" fill="#232832"/><rect x="29" y="18" width="1" height="1" fill="#2e3440"/><rect x="30" y="18" width="1" height="1" fill="#687286"/><rect x="1" y="19" width="1" height="1" fill="#a3aec2"/><rect x="2" y="19" width="1" height="1" fill="#2e3440"/><rect x="3" y="19" width="1" height="1" fill="#3b4252"/><rect x="4" y="19" width="7" height="1" fill="#2e3440"/><rect x="11" y="19" width="1" height="1" fill="#880000"/><rect x="12" y="19" width="8" height="1" fill="#cc2200"/><rect x="20" y="19" width="1" height="1" fill="#880000"/><rect x="21" y="19" width="8" height="1" fill="#2e3440"/><rect x="29" y="19" width="1" height="1" fill="#232832"/><rect x="30" y="19" width="1" height="1" fill="#687286"/><rect x="2" y="20" width="1" height="1" fill="#a3aec2"/><rect x="3" y="20" width="9" height="1" fill="#2e3440"/><rect x="12" y="20" width="2" height="1" fill="#880000"/><rect x="14" y="20" width="4" height="1" fill="#cc2200"/><rect x="18" y="20" width="2" height="1" fill="#880000"/><rect x="20" y="20" width="8" height="1" fill="#2e3440"/><rect x="28" y="20" width="1" height="1" fill="#232832"/><rect x="29" y="20" width="1" height="1" fill="#687286"/><rect x="2" y="21" width="1" height="1" fill="#a3aec2"/><rect x="3" y="21" width="11" height="1" fill="#2e3440"/><rect x="14" y="21" width="4" height="1" fill="#880000"/><rect x="18" y="21" width="9" height="1" fill="#2e3440"/><rect x="27" y="21" width="1" height="1" fill="#232832"/><rect x="28" y="21" width="1" height="1" fill="#2e3440"/><rect x="29" y="21" width="1" height="1" fill="#687286"/><rect x="2" y="22" width="2" height="1" fill="#a3aec2"/><rect x="4" y="22" width="22" height="1" fill="#2e3440"/><rect x="26" y="22" width="1" height="1" fill="#232832"/><rect x="27" y="22" width="1" height="1" fill="#2e3440"/><rect x="28" y="22" width="2" height="1" fill="#687286"/><rect x="3" y="23" width="1" height="1" fill="#a3aec2"/><rect x="4" y="23" width="23" height="1" fill="#2e3440"/><rect x="27" y="23" width="1" height="1" fill="#232832"/><rect x="28" y="23" width="1" height="1" fill="#687286"/><rect x="4" y="24" width="1" height="1" fill="#a3aec2"/><rect x="5" y="24" width="19" height="1" fill="#2e3440"/><rect x="24" y="24" width="1" height="1" fill="#232832"/><rect x="25" y="24" width="1" height="1" fill="#2e3440"/><rect x="26" y="24" width="1" height="1" fill="#232832"/><rect x="27" y="24" width="1" height="1" fill="#687286"/><rect x="4" y="25" width="2" height="1" fill="#a3aec2"/><rect x="6" y="25" width="19" height="1" fill="#2e3440"/><rect x="25" y="25" width="1" height="1" fill="#232832"/><rect x="26" y="25" width="2" height="1" fill="#687286"/><rect x="5" y="26" width="2" height="1" fill="#a3aec2"/><rect x="7" y="26" width="15" height="1" fill="#2e3440"/><rect x="22" y="26" width="1" height="1" fill="#232832"/><rect x="23" y="26" width="1" height="1" fill="#2e3440"/><rect x="24" y="26" width="1" height="1" fill="#232832"/><rect x="25" y="26" width="2" height="1" fill="#687286"/><rect x="6" y="27" width="2" height="1" fill="#a3aec2"/><rect x="8" y="27" width="15" height="1" fill="#2e3440"/><rect x="23" y="27" width="1" height="1" fill="#232832"/><rect x="24" y="27" width="2" height="1" fill="#687286"/><rect x="8" y="28" width="2" height="1" fill="#687286"/><rect x="10" y="28" width="1" height="1" fill="#232832"/><rect x="11" y="28" width="1" height="1" fill="#2e3440"/><rect x="12" y="28" width="1" height="1" fill="#232832"/><rect x="13" y="28" width="1" height="1" fill="#2e3440"/><rect x="14" y="28" width="1" height="1" fill="#232832"/><rect x="15" y="28" width="1" height="1" fill="#2e3440"/><rect x="16" y="28" width="1" height="1" fill="#232832"/><rect x="17" y="28" width="1" height="1" fill="#2e3440"/><rect x="18" y="28" width="1" height="1" fill="#232832"/><rect x="19" y="28" width="1" height="1" fill="#2e3440"/><rect x="20" y="28" width="2" height="1" fill="#232832"/><rect x="22" y="28" width="2" height="1" fill="#687286"/><rect x="9" y="29" width="3" height="1" fill="#687286"/><rect x="12" y="29" width="1" height="1" fill="#2e3440"/><rect x="13" y="29" width="1" height="1" fill="#232832"/><rect x="14" y="29" width="1" height="1" fill="#2e3440"/><rect x="15" y="29" width="1" height="1" fill="#232832"/><rect x="16" y="29" width="1" height="1" fill="#2e3440"/><rect x="17" y="29" width="1" height="1" fill="#232832"/><rect x="18" y="29" width="1" height="1" fill="#2e3440"/><rect x="19" y="29" width="1" height="1" fill="#232832"/><rect x="20" y="29" width="3" height="1" fill="#687286"/><rect x="12" y="30" width="8" height="1" fill="#687286"/></svg>